<svg width="570" height="570" viewBox="0 0 570 570" fill="none" xmlns="http://www.w3.org/2000/svg">
<rect width="358" height="358" transform="translate(106 106)" fill="#26BBED"/>
<path d="M203.933 311.428H201.636C198.355 311.428 196.714 309.6 196.714 305.945V242.091C196.714 232.201 192.448 227.256 183.917 227.256H172.105C162.699 227.256 157.996 231.986 157.996 241.446V305.945C157.996 309.6 156.355 311.428 153.074 311.428H150.777C149.027 311.428 147.715 310.783 146.84 309.493C146.184 308.203 145.855 307.02 145.855 305.945V186.299C145.855 185.009 146.184 183.826 146.84 182.751C147.715 181.461 149.027 180.816 150.777 180.816H153.074C156.355 180.816 157.996 182.644 157.996 186.299V217.581C163.027 215.431 167.73 214.356 172.105 214.356H183.917C191.573 214.356 197.698 216.829 202.292 221.774C206.886 226.503 209.183 233.276 209.183 242.091V305.945C209.183 309.6 207.433 311.428 203.933 311.428Z" fill="white"/>
<path d="M270.456 304.333C268.706 309.493 267.175 313.793 265.863 317.233C264.55 320.673 263.347 323.252 262.253 324.972C256.566 334.217 248.91 338.84 239.285 338.84H235.019C233.707 338.84 232.394 338.41 231.082 337.55C229.769 336.905 229.113 335.507 229.113 333.357V331.422C229.113 329.702 229.66 328.305 230.754 327.23C231.848 326.37 233.269 325.94 235.019 325.94H239.285C244.316 325.94 248.035 324.005 250.441 320.135C252.847 316.265 254.816 312.073 256.347 307.558C251.972 295.303 247.16 281.758 241.91 266.923C236.66 252.088 231.629 237.576 226.816 223.386C226.379 222.311 226.379 220.914 226.816 219.194C227.473 217.474 228.895 216.614 231.082 216.614H233.707C235.676 216.614 237.207 217.581 238.301 219.516C238.738 220.376 238.957 220.806 238.957 220.806L262.253 289.175L277.347 244.993L285.55 220.806C286.644 218.011 288.503 216.614 291.128 216.614H293.425C295.831 216.614 297.253 217.581 297.69 219.516C298.128 221.236 298.237 222.633 298.018 223.708L270.456 304.333Z" fill="white"/>
<path d="M322.581 311.428H320.284C318.534 311.428 317.222 310.783 316.347 309.493C315.691 308.203 315.363 307.02 315.363 305.945V186.299C315.363 185.009 315.691 183.826 316.347 182.751C317.222 181.461 318.534 180.816 320.284 180.816H322.581C326.081 180.816 327.831 182.644 327.831 186.299V305.945C327.831 309.6 326.081 311.428 322.581 311.428Z" fill="white"/>
<path d="M391.579 304.333C389.829 309.493 388.297 313.793 386.985 317.233C385.672 320.673 384.469 323.252 383.376 324.972C377.688 334.217 370.032 338.84 360.407 338.84H356.142C354.829 338.84 353.517 338.41 352.204 337.55C350.892 336.905 350.236 335.507 350.236 333.357V331.422C350.236 329.702 350.782 328.305 351.876 327.23C352.97 326.37 354.392 325.94 356.142 325.94H360.407C365.438 325.94 369.157 324.005 371.563 320.135C373.969 316.265 375.938 312.073 377.469 307.558C373.095 295.303 368.282 281.758 363.032 266.923C357.782 252.088 352.751 237.576 347.939 223.386C347.501 222.311 347.501 220.914 347.939 219.194C348.595 217.474 350.017 216.614 352.204 216.614H354.829C356.798 216.614 358.329 217.581 359.423 219.516C359.86 220.376 360.079 220.806 360.079 220.806L383.376 289.175L398.469 244.993L406.672 220.806C407.766 218.011 409.625 216.614 412.25 216.614H414.547C416.953 216.614 418.375 217.581 418.813 219.516C419.25 221.236 419.359 222.633 419.141 223.708L391.579 304.333Z" fill="white"/>
<path d="M355.004 403.17C354.361 403.17 353.878 402.848 353.557 402.205C353.235 401.454 353.074 400.757 353.074 400.114V391.269C353.074 390.626 353.235 389.982 353.557 389.339C353.878 388.589 354.361 388.213 355.004 388.213H358.22C358.864 388.213 359.346 388.589 359.668 389.339C359.989 389.982 360.15 390.626 360.15 391.269V400.114C360.15 400.757 359.989 401.454 359.668 402.205C359.346 402.848 358.864 403.17 358.22 403.17H355.004Z" fill="white"/>
<path d="M402.17 403.17C401.424 403.17 400.864 402.909 400.491 402.386C400.118 401.864 399.857 401.417 399.708 401.044L396.576 391.535H381.808L378.452 401.268C378.303 401.79 378.005 402.237 377.557 402.61C377.11 402.983 376.587 403.17 375.991 403.17H375.208C374.238 403.17 373.567 402.797 373.194 402.051C372.821 401.305 372.746 400.634 372.97 400.037L385.948 359.986C386.097 359.688 386.321 359.277 386.619 358.755C386.992 358.233 387.589 357.972 388.409 357.972H389.863C391.131 357.972 391.989 358.606 392.436 359.874L405.414 400.037C405.638 400.634 405.563 401.305 405.19 402.051C404.817 402.797 404.146 403.17 403.176 403.17H402.17ZM389.08 368.153C388.707 369.495 388.26 370.987 387.738 372.628C387.29 374.269 386.805 375.872 386.283 377.438C385.836 379.005 385.388 380.496 384.941 381.913C384.493 383.33 384.12 384.524 383.822 385.493H394.562L389.08 368.153Z" fill="white"/>
<path d="M415.07 403.17C414.25 403.17 413.653 402.871 413.28 402.275C412.982 401.678 412.833 401.119 412.833 400.596V360.545C412.833 359.949 412.982 359.389 413.28 358.867C413.653 358.271 414.25 357.972 415.07 357.972H415.965C417.531 357.972 418.314 358.83 418.314 360.545V400.596C418.314 402.312 417.531 403.17 415.965 403.17H415.07Z" fill="white"/>
</svg>
